<svg width="48" height="48" viewBox="0 0 48 48" xmlns="http://www.w3.org/2000/svg">
    <path d="M37.627 29.573c.552-.3 1.263.032 1.361.623l.012.141v1.996C39 36.121 32.416 39 24 39c-8.24 0-14.725-2.76-14.991-6.431L9 32.333v-1.996c0-.677.778-1.088 1.374-.764.307.167.625.325.951.476C14.37 31.45 18.627 32.333 24 32.333c5.373 0 9.63-.883 12.675-2.284.326-.15.644-.31.952-.476zM39 20.816v2.35C39 25.667 34.083 29 24 29c-10.082 0-15-3.333-15-5.833v-2.35c0-.652.722-1.065 1.314-.793.665.305 1.365.566 2.073.79 3.135.993 7.245 1.52 11.613 1.52 4.367 0 8.478-.527 11.612-1.52a18.023 18.023 0 0 0 2.074-.79c.592-.272 1.314.141 1.314.792zM23.473 9.003 24 9c8.284 0 15 2.303 15 5.143 0 1.571-2.055 2.89-5.294 3.756l-.768.191c-.526.122-1.078.233-1.653.333l-.88.14a38.29 38.29 0 0 1-1.38.175l-.956.093-.984.073-1.007.053a49.631 49.631 0 0 1-4.156 0l-1.007-.053-.984-.073-.956-.093a38.29 38.29 0 0 1-1.38-.176l-.88-.14c-.575-.099-1.127-.21-1.653-.332l-.768-.191C11.055 17.033 9 15.714 9 14.143c0-2.78 6.433-5.045 14.473-5.14z" fill="#8B93A0" fill-rule="nonzero"/>
</svg>
