<svg width="48" height="48" viewBox="0 0 48 48" xmlns="http://www.w3.org/2000/svg">
    <path d="M29 24c0 1.057-.03 2.089-.089 3.09-.03.515-.39.91-.822.91h-8.178c-.431 0-.792-.395-.822-.91a53.223 53.223 0 0 1 0-6.18c.03-.516.39-.91.822-.91h8.178c.431 0 .792.394.822.91.058 1 .089 2.032.089 3.09zm3.902-4c-.522 0-.932.5-.9 1.084a54.42 54.42 0 0 1 0 5.831c-.032.584.378 1.084.9 1.084h7.012c.424 0 .792-.334.86-.804.149-1.04.226-2.108.226-3.195 0-1.088-.077-2.155-.227-3.196-.067-.47-.435-.804-.859-.804h-7.012zm6.118-4.203a.824.824 0 0 1-.734 1.204h-5.653a.872.872 0 0 1-.844-.721c-.533-2.751-1.341-5.166-2.347-7.066-.394-.744.265-1.724 1.027-1.4 3.673 1.556 6.7 4.4 8.551 7.983zm-10.778.163a.846.846 0 0 1-.815 1.04h-6.854a.846.846 0 0 1-.815-1.04c.357-1.561.81-2.95 1.327-4.122C22.519 8.59 23.805 8.252 24 8.252c.194 0 1.48.338 2.915 3.586.517 1.172.97 2.561 1.327 4.122zM15.367 17a.872.872 0 0 0 .844-.72c.533-2.751 1.341-5.166 2.347-7.066.394-.744-.265-1.724-1.027-1.4-3.673 1.556-6.7 4.4-8.551 7.983a.824.824 0 0 0 .734 1.204h5.653zm-7.28 3c-.425 0-.793.335-.86.804a22.525 22.525 0 0 0 0 6.391c.067.47.435.804.86.804h7.011c.522 0 .932-.5.9-1.084a54.401 54.401 0 0 1 0-5.83c.032-.585-.378-1.085-.9-1.085H8.086zm12.998 16.162c-.518-1.172-.97-2.56-1.327-4.122a.846.846 0 0 1 .815-1.04h6.854c.535 0 .938.503.815 1.04-.357 1.561-.81 2.95-1.327 4.122-1.434 3.248-2.72 3.586-2.915 3.586-.194 0-1.48-.338-2.915-3.586zM16.21 31.72a.872.872 0 0 0-.844-.72H9.714a.824.824 0 0 0-.734 1.203c1.851 3.584 4.878 6.427 8.551 7.984.762.323 1.42-.657 1.027-1.401-1.006-1.9-1.814-4.315-2.347-7.066zm22.81.483a.824.824 0 0 0-.735-1.204h-5.653a.872.872 0 0 0-.844.721c-.533 2.751-1.341 5.166-2.347 7.066-.394.744.265 1.724 1.027 1.4 3.673-1.556 6.7-4.4 8.551-7.983z" fill="#8B93A0" fill-rule="nonzero"/>
</svg>
