<?xml version="1.0" encoding="UTF-8"?>
<svg width="15px" height="15px" viewBox="0 0 15 15" version="1.1" xmlns="http://www.w3.org/2000/svg"
     xmlns:xlink="http://www.w3.org/1999/xlink">
    <title>7A676D62-12B8-4C4C-A1FF-6200AF34F46A</title>
    <g id="Soothe" stroke="none" stroke-width="1" fill="none" fill-rule="evenodd">
        <g id="ex-SO-X-Icon-Slices" transform="translate(-243, -1332)" fill="#11161C">
            <g id="Summary" transform="translate(80, 1277)">
                <g id="To" transform="translate(14, 51)">
                    <g id="Account" transform="translate(149, 0)">
                        <g id="Icon" transform="translate(0, 4)">
                            <path d="M7.5,15 C11.6421356,15 15,11.6421356 15,7.5 C15,3.35786438 11.6421356,0 7.5,0 C3.35786438,0 0,3.35786438 0,7.5 C0,11.6421356 3.35786438,15 7.5,15 Z M7.5,11 C7.00294333,11 6.6,11.4029433 6.6,11.9 C6.6,12.3970558 7.00294333,12.8 7.5,12.8 C7.99705667,12.8 8.4,12.3970558 8.4,11.9 C8.4,11.4029433 7.99705667,11 7.5,11 Z M7.49998283,3 C6.19259191,3 5.08236086,3.83588433 4.67088211,5.00006533 C4.53284705,5.39060247 4.73754036,5.81909466 5.12807751,5.95712972 C5.49071914,6.08530513 5.88608732,5.91796475 6.05123687,5.58071941 L6.0851419,5.49993467 C6.29141736,4.91632712 6.84804511,4.5 7.49998283,4.5 C8.32840991,4.5 8.99998283,5.17157292 8.99998283,6 C8.99998283,6.7907713 8.38807445,7.43862384 7.61192959,7.4958857 L7.49998283,7.5 C7.08576894,7.5 6.74998283,7.83578682 6.74998283,8.25 L6.74998283,9.375 C6.74998283,9.7892139 7.08576894,10.125 7.49998283,10.125 C7.91419601,10.125 8.24998283,9.7892139 8.24998283,9.375 L8.24998283,8.90548682 C9.54390335,8.57245445 10.4999828,7.39787936 10.4999828,6 C10.4999828,4.34314585 9.15683699,3 7.49998283,3 Z"
                                  id="Shape"></path>
                        </g>
                    </g>
                </g>
            </g>
        </g>
    </g>
</svg>
