<svg width="48" height="48" viewBox="0 0 48 48" xmlns="http://www.w3.org/2000/svg">
    <path d="M34.667 26C37.612 26 40 28.35 40 31.25v3.5c0 2.9-2.388 5.25-5.333 5.25H13.333C10.388 40 8 37.65 8 34.75v-3.5c0-2.9 2.388-5.25 5.333-5.25h21.334zm-7.445 5H14.778c-.982 0-1.778.895-1.778 2 0 1.026.686 1.871 1.57 1.987l.208.013h12.444c.982 0 1.778-.895 1.778-2 0-1.026-.686-1.871-1.57-1.987L27.222 31zM33 31a2 2 0 1 0 0 4 2 2 0 0 0 0-4zm1.667-23C37.612 8 40 10.35 40 13.25v3.5c0 2.9-2.388 5.25-5.333 5.25H13.333C10.388 22 8 19.65 8 16.75v-3.5C8 10.35 10.388 8 13.333 8h21.334zm-7.445 5H14.778c-.982 0-1.778.895-1.778 2 0 1.026.686 1.871 1.57 1.987l.208.013h12.444c.982 0 1.778-.895 1.778-2 0-1.026-.686-1.871-1.57-1.987L27.222 13zM33 13a2 2 0 1 0 0 4 2 2 0 0 0 0-4z" fill="#8B93A0" fill-rule="evenodd"/>
</svg>
