<svg width="12" height="15" viewBox="0 0 12 15" xmlns="http://www.w3.org/2000/svg">
    <path d="m6.632.733 4 1.333A2 2 0 0 1 12 3.963v3.559c0 2.274-1.425 3.994-2.886 5.16l-.283.219c-.188.14-.376.273-.56.396L8 13.474l-.264.163-.254.15-.242.136-.333.177-.2.101a1.584 1.584 0 0 1-1.414 0l-.2-.1-.218-.116-.234-.129-.248-.142-.129-.077L4 13.474l-.272-.177a12.721 12.721 0 0 1-.56-.396l-.282-.22C1.425 11.517 0 9.797 0 7.522V3.964a2 2 0 0 1 1.368-1.897l4-1.333a2 2 0 0 1 1.264 0zm1.84 4.984a.667.667 0 0 0-.88-.055l-.063.055-2.196 2.195-.862-.862a.667.667 0 0 0-.998.88l.056.063.956.956a1.2 1.2 0 0 0 1.616.074l.08-.074 2.29-2.29a.667.667 0 0 0 0-.942z" fill="#5F9B15" fill-rule="evenodd"/>
</svg>
