<svg width="48" height="48" viewBox="0 0 48 48" xmlns="http://www.w3.org/2000/svg">
    <path d="M36.5 4A4.5 4.5 0 0 1 41 8.5v19a4.5 4.5 0 0 1-4 4.473V32a3 3 0 0 1-6 0H17a3 3 0 0 1-5.995.176L11 31.971A4.498 4.498 0 0 1 7 27.5v-19A4.5 4.5 0 0 1 11.5 4h25zm-1.94 8.44a1.5 1.5 0 0 0-2.12 0l-1.127 1.126A4.978 4.978 0 0 0 29 13c-.834 0-1.621.204-2.313.566l-1.126-1.127a1.5 1.5 0 0 0-2.122 2.122l1.127 1.126A4.978 4.978 0 0 0 24 18c0 .834.204 1.621.566 2.313l-1.127 1.126a1.5 1.5 0 0 0 2.122 2.122l1.126-1.127A4.978 4.978 0 0 0 29 23c.834 0 1.621-.204 2.313-.566l1.126 1.127a1.5 1.5 0 0 0 2.122-2.122l-1.127-1.126A4.978 4.978 0 0 0 34 18c0-.834-.204-1.621-.566-2.313l1.127-1.126a1.5 1.5 0 0 0 0-2.122zM14.5 14a1.5 1.5 0 0 0-1.5 1.5v5a1.5 1.5 0 0 0 3 0v-5a1.5 1.5 0 0 0-1.5-1.5zM29 16a2 2 0 1 1 0 4 2 2 0 0 1 0-4z" fill="#8B93A0" fill-rule="evenodd"/>
</svg>
