<svg width="12" height="15" viewBox="0 0 12 15" xmlns="http://www.w3.org/2000/svg">
    <path d="m6.632.733 4 1.333A2 2 0 0 1 12 3.963v3.559c0 2.274-1.425 3.994-2.886 5.16l-.283.219c-.188.14-.376.273-.56.396L8 13.474l-.264.163-.254.15-.242.136-.333.177-.2.101a1.584 1.584 0 0 1-1.414 0l-.2-.1-.218-.116-.234-.129-.248-.142-.129-.077L4 13.474l-.272-.177a12.721 12.721 0 0 1-.56-.396l-.282-.22C1.425 11.517 0 9.797 0 7.522V3.964a2 2 0 0 1 1.368-1.897l4-1.333a2 2 0 0 1 1.264 0zM6 9.8a.72.72 0 1 0 0 1.44.72.72 0 0 0 0-1.44zm0-6.4A2.4 2.4 0 0 0 3.737 5a.6.6 0 0 0 1.104.465l.027-.065A1.2 1.2 0 1 1 6.09 6.997L6 7a.6.6 0 0 0-.6.6v.9a.6.6 0 1 0 1.2 0v-.376A2.401 2.401 0 0 0 6 3.4z" fill="#DB8212" fill-rule="evenodd"/>
</svg>
