<svg width="20" height="20" viewBox="0 0 20 20" fill="none" xmlns="http://www.w3.org/2000/svg">
    <path class="stroke"
          d="M10.2102 14.0722C10.3977 14.2835 10.6925 14.3669 10.9545 14.2568C11.1122 14.1883 11.267 14.1139 11.4159 14.0305L11.5767 13.9382C11.7255 13.8489 11.8714 13.7507 12.0113 13.6465C12.2376 13.4768 12.312 13.1791 12.2227 12.9111L11.9458 12.0716C12.2078 11.753 12.4222 11.3869 12.568 10.9939L13.4344 10.8123C13.7112 10.7557 13.9315 10.5414 13.9643 10.2615C13.9881 10.0621 14 9.85961 14 9.6542C14 9.44878 13.9881 9.24634 13.9643 9.04687C13.9315 8.76703 13.7082 8.55268 13.4344 8.49611L12.568 8.31153C12.4192 7.91558 12.2078 7.55238 11.9458 7.23383L12.2227 6.3943C12.312 6.12636 12.2376 5.82865 12.0113 5.65896C11.8714 5.55476 11.7255 5.45652 11.5767 5.36423L11.4189 5.27491C11.27 5.19156 11.1152 5.11713 10.9545 5.04866C10.6954 4.93851 10.4007 5.02186 10.2102 5.23324L9.62072 5.89415C9.41828 5.8614 9.20988 5.84354 8.99851 5.84354C8.78714 5.84354 8.57874 5.8614 8.3763 5.89415L7.78684 5.23324C7.59928 5.02186 7.30455 4.93851 7.04257 5.04866C6.88479 5.11713 6.72998 5.19156 6.57815 5.27491L6.42334 5.36423C6.27151 5.45354 6.12861 5.55178 5.98869 5.65896C5.76243 5.82865 5.688 6.12636 5.77731 6.3943L6.05418 7.23383C5.7922 7.55238 5.57785 7.91856 5.43197 8.31153L4.56564 8.49016C4.28878 8.54672 4.06847 8.76107 4.03572 9.04092C4.01191 9.24038 4 9.44282 4 9.64824C4 9.85366 4.01191 10.0561 4.03572 10.2556C4.06847 10.5354 4.29175 10.7498 4.56564 10.8063L5.43197 10.9879C5.58083 11.3839 5.7922 11.7471 6.05418 12.0656L5.77731 12.9052C5.688 13.1731 5.76243 13.4708 5.98869 13.6405C6.12861 13.7447 6.27151 13.8429 6.42334 13.9323L6.5841 14.0245C6.73296 14.1079 6.88776 14.1823 7.04555 14.2508C7.30456 14.361 7.59929 14.2776 7.78982 14.0662L8.37928 13.4053C8.58172 13.4381 8.79012 13.4559 9.00149 13.4559C9.21286 13.4559 9.42126 13.4381 9.6237 13.4053L10.2132 14.0662L10.2102 14.0722ZM8.99851 8.22222C9.18617 8.22222 9.37199 8.25918 9.54537 8.331C9.71874 8.40281 9.87627 8.50807 10.009 8.64076C10.1417 8.77346 10.2469 8.93099 10.3187 9.10436C10.3905 9.27774 10.4275 9.46356 10.4275 9.65122C10.4275 9.83888 10.3905 10.0247 10.3187 10.1981C10.2469 10.3714 10.1417 10.529 10.009 10.6617C9.87627 10.7944 9.71874 10.8996 9.54537 10.9714C9.37199 11.0433 9.18617 11.0802 8.99851 11.0802C8.81085 11.0802 8.62503 11.0433 8.45166 10.9714C8.27828 10.8996 8.12075 10.7944 7.98806 10.6617C7.85536 10.529 7.7501 10.3714 7.67829 10.1981C7.60648 10.0247 7.56951 9.83888 7.56951 9.65122C7.56951 9.46356 7.60648 9.27774 7.67829 9.10436C7.7501 8.93099 7.85536 8.77346 7.98806 8.64076C8.12075 8.50807 8.27828 8.40281 8.45166 8.331C8.62503 8.25918 8.81085 8.22222 8.99851 8.22222Z"
          stroke="#5D5D5D"/>
</svg>
