<svg width="160" height="130" viewBox="0 0 160 130" fill="none" xmlns="http://www.w3.org/2000/svg">
<path d="M145.294 104.425H119.909C127.88 95.0408 132.246 83.1226 132.221 70.8099C132.231 62.406 130.213 54.1237 126.338 46.6665C122.463 39.2093 116.845 32.7975 109.962 27.9757C103.079 23.1539 95.134 20.0645 86.8016 18.97C78.4692 17.8754 69.9958 18.808 62.1009 21.6886C54.2061 24.5691 47.123 29.3125 41.4534 35.5159C35.7838 41.7193 31.6951 49.1994 29.5346 57.3209C27.3741 65.4424 27.2056 73.9654 29.0434 82.1659C30.8812 90.3664 34.671 98.0023 40.091 104.425H14.7069C13.7941 104.439 12.9227 104.808 12.2772 105.454C11.6317 106.099 11.2628 106.971 11.2485 107.883C11.2485 108.8 11.6129 109.68 12.2615 110.329C12.91 110.977 13.7897 111.342 14.7069 111.342H145.294C146.211 111.342 147.09 110.977 147.739 110.329C148.388 109.68 148.752 108.8 148.752 107.883C148.738 106.971 148.369 106.099 147.723 105.454C147.078 104.808 146.206 104.439 145.294 104.425ZM110.503 104.425H49.7052C42.9116 98.297 38.1339 90.2547 36.0015 81.3576C33.8692 72.4606 34.4822 63.1263 37.7599 54.5845C41.0375 46.0428 46.826 38.6944 54.3627 33.5076C61.8993 28.3208 70.8305 25.5389 79.9795 25.5285C89.1285 25.5181 98.0661 28.2796 105.615 33.4493C113.163 38.6189 118.968 45.9541 122.265 54.4883C125.562 63.0225 126.197 72.3554 124.085 81.2573C121.973 90.1592 117.213 98.2124 110.434 104.356L110.503 104.425Z" fill="#BDD7FF"/>
<path d="M93.8335 78.5911C93.8303 81.4145 92.7587 84.132 90.8341 86.1977C88.9095 88.2635 86.2745 89.5243 83.4585 89.727V94.2228C83.4541 94.6693 83.3606 95.1104 83.1835 95.5203C83.0064 95.9302 82.7493 96.3006 82.4272 96.6098C82.1051 96.919 81.7245 97.1608 81.3077 97.321C80.891 97.4812 80.4464 97.5566 80.0001 97.5428C79.1017 97.5595 78.2333 97.2195 77.5851 96.5972C76.9369 95.9749 76.5618 95.1211 76.5418 94.2228V89.7961H70.9393C70.0221 89.7961 69.1424 89.4318 68.4939 88.7832C67.8453 88.1347 67.481 87.255 67.481 86.3378C67.4952 85.425 67.8642 84.5537 68.5097 83.9082C69.1552 83.2627 70.0265 82.8937 70.9393 82.8795H82.6285C83.1924 82.8822 83.7512 82.7732 84.2728 82.5586C84.7943 82.3441 85.2681 82.0283 85.6669 81.6296C86.0656 81.2308 86.3814 80.757 86.596 80.2355C86.8105 79.7139 86.9195 79.1551 86.9168 78.5911C86.9113 77.4555 86.4578 76.3679 85.6547 75.5649C84.8517 74.7618 83.7641 74.3083 82.6285 74.3028H77.441C74.5615 74.2869 71.799 73.1618 69.7279 71.1613C67.6567 69.1608 66.4364 66.439 66.3206 63.5619C66.2048 60.6847 67.2024 57.8736 69.1061 55.7132C71.0098 53.5528 73.6729 52.2092 76.5418 51.962V47.4661C76.5618 46.5678 76.9369 45.714 77.5851 45.0917C78.2333 44.4695 79.1017 44.1294 80.0001 44.1461C80.4464 44.1323 80.891 44.2077 81.3077 44.3679C81.7245 44.5281 82.1051 44.7699 82.4272 45.0792C82.7493 45.3884 83.0064 45.7588 83.1835 46.1687C83.3606 46.5786 83.4541 47.0197 83.4585 47.4661V51.8928H89.061C89.9782 51.8928 90.8578 52.2572 91.5064 52.9057C92.1549 53.5543 92.5193 54.4339 92.5193 55.3511C92.5193 56.2683 92.1549 57.148 91.5064 57.7966C90.8578 58.4451 89.9782 58.8095 89.061 58.8095H77.441C76.3036 58.8095 75.2129 59.2613 74.4086 60.0655C73.6044 60.8697 73.1526 61.9605 73.1526 63.0978C73.1526 64.2351 73.6044 65.3259 74.4086 66.1301C75.2129 66.9343 76.3036 67.3861 77.441 67.3861H82.6285C85.5968 67.3971 88.4405 68.5811 90.5395 70.6801C92.6385 72.7791 93.8225 75.6228 93.8335 78.5911Z" fill="#BDD7FF"/>
</svg>
