<svg width="20" height="20" viewBox="0 0 20 20" fill="none" xmlns="http://www.w3.org/2000/svg">
<g clip-path="url(#clip0_6625_2534)">
<path d="M17.5 9.99999C17.5 8.5161 17.0598 7.06556 16.2352 5.83192C15.4105 4.59828 14.2384 3.637 12.8672 3.06971C11.4961 2.50242 9.98742 2.35463 8.53222 2.64503C7.07702 2.93543 5.74068 3.65098 4.69228 4.70113C3.64389 5.75127 2.93057 7.08881 2.64259 8.54449C2.35462 10.0002 2.50493 11.5086 3.0745 12.8788C3.64408 14.249 4.60731 15.4195 5.84233 16.2421C7.07734 17.0647 8.52861 17.5025 10.0125 17.5M3 7.49999H17M3 12.5H12.0833" stroke="#939393" stroke-linecap="round" stroke-linejoin="round"/>
<path d="M9.58334 2.5C8.17946 4.74968 7.43518 7.34822 7.43518 10C7.43518 12.6518 8.5962 15.2503 10.0001 17.5M10.4167 2.5C12.013 5.05698 12.9167 8.75 12.0834 12.5" stroke="#939393" stroke-linecap="round" stroke-linejoin="round"/>
<circle cx="15.5" cy="15.5" r="4.5" fill="#2ACE3A" stroke="white" stroke-width="2"/>
</g>
<defs>
<clipPath id="clip0_6625_2534">
<rect width="20" height="20" fill="white"/>
</clipPath>
</defs>
</svg>
