<svg width="30" height="30" viewBox="0 0 30 30" fill="none" xmlns="http://www.w3.org/2000/svg">
<path d="M9 19.5V20.7692C9 21.8738 9.89543 22.7692 11 22.7692H19C20.1046 22.7692 21 21.8738 21 20.7692V19.5" stroke="#1E70EB" stroke-width="1.3"/>
<path d="M14.5404 18.4596C14.7942 18.7135 15.2058 18.7135 15.4596 18.4596L19.5962 14.323C19.85 14.0692 19.85 13.6576 19.5962 13.4038C19.3424 13.15 18.9308 13.15 18.677 13.4038L15 17.0808L11.323 13.4038C11.0692 13.15 10.6576 13.15 10.4038 13.4038C10.15 13.6576 10.15 14.0692 10.4038 14.323L14.5404 18.4596ZM14.35 7V18H15.65V7H14.35Z" fill="#1E70EB"/>
</svg>
