<svg width="30" height="30" viewBox="0 0 30 30" fill="none" xmlns="http://www.w3.org/2000/svg">
<path d="M19.2045 12.7982L19.2042 12.7984L19.176 12.8266L17.2069 10.8574L17.2358 10.8285C17.2358 10.8284 17.2359 10.8283 17.236 10.8283C17.236 10.8282 17.236 10.8282 17.2361 10.8282C17.4464 10.6181 17.7316 10.5 18.029 10.5C18.3265 10.5 18.6119 10.6182 18.8223 10.8285L19.2042 11.211L19.2045 11.2113C19.3087 11.3155 19.3914 11.4392 19.4478 11.5753C19.5042 11.7114 19.5332 11.8574 19.5332 12.0047C19.5332 12.1521 19.5042 12.298 19.4478 12.4341C19.3914 12.5703 19.3087 12.694 19.2045 12.7982ZM15.7018 12.3633L17.671 14.3325L13.1093 18.8942L13.1093 18.8942C13.0681 18.9354 13.0161 18.9642 12.9594 18.9774L10.5504 19.5331L10.5498 19.5332C10.5431 19.5348 10.5361 19.5346 10.5295 19.5327C10.5228 19.5308 10.5168 19.5273 10.5119 19.5224C10.507 19.5175 10.5035 19.5115 10.5016 19.5048C10.4997 19.4982 10.4995 19.4912 10.5011 19.4844L10.5011 19.4841L11.0575 17.0754L11.0576 17.075C11.0707 17.0182 11.0995 16.9662 11.1407 16.9249L15.7018 12.3633Z" fill="#1E70EB" stroke="#1E70EB"/>
</svg>
