<svg width="40" height="40" viewBox="0 0 40 40" fill="none" xmlns="http://www.w3.org/2000/svg">
<rect width="40" height="40" rx="20" fill="#BDD7FF"/>
<path d="M14 26L22.1818 22.1818L26 14L17.8182 17.8182L14 26ZM20 21.0909C19.6909 21.0909 19.4316 20.9862 19.2222 20.7767C19.0127 20.5673 18.9084 20.3084 18.9091 20C18.9091 19.6909 19.0138 19.4316 19.2233 19.2222C19.4327 19.0127 19.6916 18.9084 20 18.9091C20.3091 18.9091 20.5684 19.0138 20.7778 19.2233C20.9873 19.4327 21.0916 19.6916 21.0909 20C21.0909 20.3091 20.9862 20.5684 20.7767 20.7778C20.5673 20.9873 20.3084 21.0916 20 21.0909Z" fill="#0E59CB"/>
</svg>
