<svg width="24" height="24" viewBox="0 0 24 24" fill="none" xmlns="http://www.w3.org/2000/svg">
<rect width="24" height="24" rx="12" fill="#1E70EB"/>
<path d="M6 18L14.1818 14.1818L18 6L9.81818 9.81818L6 18ZM12 13.0909C11.6909 13.0909 11.4316 12.9862 11.2222 12.7767C11.0127 12.5673 10.9084 12.3084 10.9091 12C10.9091 11.6909 11.0138 11.4316 11.2233 11.2222C11.4327 11.0127 11.6916 10.9084 12 10.9091C12.3091 10.9091 12.5684 11.0138 12.7778 11.2233C12.9873 11.4327 13.0916 11.6916 13.0909 12C13.0909 12.3091 12.9862 12.5684 12.7767 12.7778C12.5673 12.9873 12.3084 13.0916 12 13.0909Z" fill="white"/>
</svg>
