<svg width="20" height="20" viewBox="0 0 20 20" fill="none" xmlns="http://www.w3.org/2000/svg">
    <path class="stroke"
          d="M4.3 8.23529C4.3 6.06189 6.06189 4.3 8.23529 4.3H15.7V11.7647C15.7 13.9381 13.9381 15.7 11.7647 15.7H4.3V8.23529Z"
          stroke="#5D5D5D" stroke-width="0.6"/>
    <path class="fill"
          d="M9.5699 12.9389C9.62749 12.9889 9.69539 13.028 9.76972 13.0541C9.8422 13.0831 9.92057 13.0981 9.99982 13.0981C10.0791 13.0981 10.1574 13.0831 10.2299 13.0541C10.3042 13.028 10.3721 12.9889 10.4297 12.9389L12.8219 10.7627C12.9359 10.6594 13 10.5193 13 10.3733C13 10.2273 12.9359 10.0872 12.8219 9.98395C12.7079 9.88068 12.5533 9.82267 12.392 9.82267C12.2308 9.82267 12.0761 9.88068 11.9621 9.98395L10.6053 11.3514V7.54839C10.6053 7.40295 10.5415 7.26346 10.428 7.16062C10.3144 7.05778 10.1604 7 9.99982 7C9.83923 7 9.68521 7.05778 9.57165 7.16062C9.4581 7.26346 9.3943 7.40295 9.3943 7.54839V11.3514L8.03791 9.98395C7.98146 9.93282 7.91443 9.89226 7.84067 9.86458C7.7669 9.83691 7.68784 9.82267 7.608 9.82267C7.52815 9.82267 7.44909 9.83691 7.37533 9.86458C7.30156 9.89226 7.23454 9.93282 7.17808 9.98395C7.12162 10.0351 7.07684 10.0958 7.04628 10.1626C7.01573 10.2294 7 10.301 7 10.3733C7 10.4456 7.01573 10.5172 7.04628 10.584C7.07684 10.6508 7.12162 10.7115 7.17808 10.7627L9.5699 12.9389Z"
          fill="#5D5D5D"/>
</svg>
