<svg width="40" height="40" viewBox="0 0 40 40" fill="none" xmlns="http://www.w3.org/2000/svg">
    <rect width="40" height="40" rx="20" fill="#BDD7FF"/>
    <mask id="path-2-outside-1_6627_3941" maskUnits="userSpaceOnUse" x="13" y="16" width="14" height="8" fill="black">
        <rect fill="white" x="13" y="16" width="14" height="8"/>
        <path class="not-fill"
              d="M18.871 19.8182C18.871 20.8223 18.0044 21.6364 16.9355 21.6364C15.8665 21.6364 15 20.8223 15 19.8182C15 18.814 15.8665 18 16.9355 18C18.0044 18 18.871 18.814 18.871 19.8182Z"/>
    </mask>
    <path d="M24.2857 22C24.2857 22.5523 24.7334 23 25.2857 23C25.838 23 26.2857 22.5523 26.2857 22H24.2857ZM18.871 20.8182H25.2857V18.8182H18.871V20.8182ZM24.2857 19.8182V22H26.2857V19.8182H24.2857ZM25.2857 20.8182H27V18.8182H25.2857V20.8182ZM16.871 19.8182C16.871 19.7781 16.8802 19.738 16.8952 19.7048C16.9093 19.6734 16.9253 19.655 16.9347 19.6461C16.953 19.629 16.9579 19.6364 16.9355 19.6364V23.6364C18.9894 23.6364 20.871 22.0429 20.871 19.8182H16.871ZM16.9355 19.6364C16.913 19.6364 16.918 19.629 16.9362 19.6461C16.9457 19.655 16.9616 19.6734 16.9758 19.7048C16.9907 19.738 17 19.7781 17 19.8182H13C13 22.0429 14.8816 23.6364 16.9355 23.6364V19.6364ZM17 19.8182C17 19.8582 16.9907 19.8983 16.9758 19.9316C16.9616 19.963 16.9457 19.9813 16.9362 19.9902C16.918 20.0074 16.913 20 16.9355 20V16C14.8816 16 13 17.5935 13 19.8182H17ZM16.9355 20C16.9579 20 16.953 20.0074 16.9347 19.9902C16.9253 19.9813 16.9093 19.963 16.8952 19.9316C16.8802 19.8983 16.871 19.8582 16.871 19.8182H20.871C20.871 17.5935 18.9894 16 16.9355 16V20Z"
          fill="#0E59CB" mask="url(#path-2-outside-1_6627_3941)"/>
</svg>
