<svg width="24" height="24" viewBox="0 0 24 24" fill="none" xmlns="http://www.w3.org/2000/svg">
<rect width="24" height="24" rx="12" fill="#1E70EB"/>
<mask id="path-2-outside-1_6165_397" maskUnits="userSpaceOnUse" x="5" y="8" width="14" height="8" fill="black">
<rect fill="white" x="5" y="8" width="14" height="8"/>
<path d="M10.871 11.8182C10.871 12.8223 10.0044 13.6364 8.93548 13.6364C7.86655 13.6364 7 12.8223 7 11.8182C7 10.814 7.86655 10 8.93548 10C10.0044 10 10.871 10.814 10.871 11.8182Z"/>
</mask>
<path d="M16.2857 14C16.2857 14.5523 16.7334 15 17.2857 15C17.838 15 18.2857 14.5523 18.2857 14H16.2857ZM10.871 12.8182H17.2857V10.8182H10.871V12.8182ZM16.2857 11.8182V14H18.2857V11.8182H16.2857ZM17.2857 12.8182H19V10.8182H17.2857V12.8182ZM8.87097 11.8182C8.87097 11.7781 8.88023 11.738 8.8952 11.7048C8.90934 11.6734 8.92525 11.655 8.93473 11.6461C8.95297 11.629 8.95792 11.6364 8.93548 11.6364V15.6364C10.9894 15.6364 12.871 14.0429 12.871 11.8182H8.87097ZM8.93548 11.6364C8.91305 11.6364 8.918 11.629 8.93624 11.6461C8.94572 11.655 8.96163 11.6734 8.97577 11.7048C8.99073 11.738 9 11.7781 9 11.8182H5C5 14.0429 6.88161 15.6364 8.93548 15.6364V11.6364ZM9 11.8182C9 11.8582 8.99073 11.8983 8.97577 11.9316C8.96163 11.963 8.94572 11.9813 8.93624 11.9902C8.918 12.0074 8.91305 12 8.93548 12V8C6.88161 8 5 9.5935 5 11.8182H9ZM8.93548 12C8.95792 12 8.95297 12.0074 8.93473 11.9902C8.92525 11.9813 8.90934 11.963 8.8952 11.9316C8.88023 11.8983 8.87097 11.8582 8.87097 11.8182H12.871C12.871 9.5935 10.9894 8 8.93548 8V12Z" fill="white" mask="url(#path-2-outside-1_6165_397)"/>
</svg>
