<svg class="fill" width="20" height="20" viewBox="0 0 20 20" fill="none" xmlns="http://www.w3.org/2000/svg">
    <path class="fill"
          d="M6 15.5C5.725 15.5 5.4895 15.402 5.2935 15.206C5.0975 15.01 4.99967 14.7747 5 14.5V8.5C5 8.225 5.098 7.9895 5.294 7.7935C5.49 7.5975 5.72533 7.49967 6 7.5H6.5V6.5C6.5 5.80833 6.74383 5.21867 7.2315 4.731C7.71917 4.24333 8.30867 3.99967 9 4C9.69167 4 10.2813 4.24383 10.769 4.7315C11.2567 5.21917 11.5003 5.80867 11.5 6.5V7.5H12C12.275 7.5 12.5105 7.598 12.7065 7.794C12.9025 7.99 13.0003 8.22533 13 8.5V14.5C13 14.775 12.902 15.0105 12.706 15.2065C12.51 15.4025 12.2747 15.5003 12 15.5H6ZM6 14.5H12V8.5H6V14.5ZM9 12C9.275 12 9.5105 11.902 9.7065 11.706C9.9025 11.51 10.0003 11.2747 10 11C10 10.725 9.902 10.4895 9.706 10.2935C9.51 10.0975 9.27467 9.99967 9 10C8.725 10 8.4895 10.098 8.2935 10.294C8.0975 10.49 7.99967 10.7253 8 11C8 11.275 8.098 11.5105 8.294 11.7065C8.49 11.9025 8.72533 12.0003 9 12ZM7.5 7.5H10.5V6.5C10.5 6.08333 10.3542 5.72917 10.0625 5.4375C9.77083 5.14583 9.41667 5 9 5C8.58333 5 8.22917 5.14583 7.9375 5.4375C7.64583 5.72917 7.5 6.08333 7.5 6.5V7.5Z"
          fill="#5D5D5D"/>
</svg>
