<svg width="40" height="40" viewBox="0 0 40 40" fill="none" xmlns="http://www.w3.org/2000/svg">
<path fill-rule="evenodd" clip-rule="evenodd" d="M20 4L34 8.9V20.184C34 25.9618 30.4524 30.0008 27.1456 32.5082C24.2451 34.6871 20 36.368 20 36.368C20 36.368 15.6565 34.632 12.853 32.5068C9.549 30.0022 6 25.9632 6 20.1854V8.9L20 4ZM14.6097 15.6181H25.3875C26.2777 15.6181 27 14.8989 27 14.009C27 13.1192 26.2777 12.4 25.3903 12.4H14.6097C13.7195 12.4 13 13.1192 13 14.009C13 14.8989 13.7223 15.6181 14.6097 15.6181ZM14.6097 26.4H24.0998C24.8024 26.4 25.4799 26.1733 26.0062 25.7564C26.6361 25.2611 26.9972 24.5391 26.9972 23.7752V20.3668C26.9972 19.6029 26.6361 18.8809 26.0062 18.3856C25.4799 17.9715 24.8024 17.7448 24.0998 17.7448H14.6097C13.7195 17.7448 13 18.464 13 19.3538C13 20.2437 13.7223 20.9629 14.6097 20.9629H22.6861C22.6861 20.9629 23.8394 20.8705 23.8394 22.0318C23.8394 23.2211 22.6861 23.1819 22.6861 23.1819H14.6097C13.7195 23.1819 13 23.9011 13 24.791C13 25.6808 13.7223 26.4 14.6097 26.4Z" fill="#DFDFDF"/>
</svg>
