<svg width="20" height="20" viewBox="0 0 20 20" fill="none" xmlns="http://www.w3.org/2000/svg">
    <path class="stroke"
          d="M11.6667 7.66667C12.4031 7.66667 13 7.06971 13 6.33333C13 5.59695 12.4031 5 11.6667 5C10.9303 5 10.3333 5.59695 10.3333 6.33333C10.3333 7.06971 10.9303 7.66667 11.6667 7.66667Z"
          stroke="#5D5D5D" stroke-width="1.2"/>
    <path class="stroke"
          d="M11.6667 13.8888C12.4031 13.8888 13 13.2919 13 12.5555C13 11.8191 12.4031 11.2222 11.6667 11.2222C10.9303 11.2222 10.3333 11.8191 10.3333 12.5555C10.3333 13.2919 10.9303 13.8888 11.6667 13.8888Z"
          stroke="#5D5D5D" stroke-width="1.2"/>
    <path class="stroke"
          d="M6.33333 10.778C7.06971 10.778 7.66667 10.181 7.66667 9.44466C7.66667 8.70828 7.06971 8.11133 6.33333 8.11133C5.59695 8.11133 5 8.70828 5 9.44466C5 10.181 5.59695 10.778 6.33333 10.778Z"
          stroke="#5D5D5D" stroke-width="1.2"/>
    <path class="stroke" d="M10.5147 7.00537L7.48622 8.77204M10.5147 11.8836L7.48622 10.1169" stroke="#5D5D5D"
          stroke-width="1.2" stroke-linecap="round" stroke-linejoin="round"/>
</svg>
