<svg width="20" height="20" viewBox="0 0 20 20" fill="none" xmlns="http://www.w3.org/2000/svg">
    <path class="stroke"
          d="M4.3 8.23529C4.3 6.06189 6.06189 4.3 8.23529 4.3H15.7V11.7647C15.7 13.9381 13.9381 15.7 11.7647 15.7H4.3V8.23529Z"
          stroke="#5D5D5D" stroke-width="0.6"/>
    <path class="fill" fill-rule="evenodd" clip-rule="evenodd"
          d="M10.7724 8.9284V7.14148C10.7724 6.72047 10.4765 6.37891 10.1103 6.37891C9.74419 6.37891 9.44826 6.72047 9.44826 7.14015V8.9284H7.45082C7.02982 8.9284 6.68958 9.22433 6.68958 9.59049C6.68958 9.95665 7.03114 10.2526 7.45082 10.2526H9.44826V12.2385C9.44826 12.6595 9.74419 12.9998 10.1103 12.9998C10.4765 12.9998 10.7724 12.6582 10.7724 12.2385V10.2526H12.5479C12.9689 10.2526 13.3104 9.95665 13.3104 9.59049C13.3104 9.22433 12.9689 8.9284 12.5492 8.9284H10.7724Z"
          fill="#5D5D5D"/>
</svg>
