<svg width="24" height="24" viewBox="0 0 24 24" fill="none" xmlns="http://www.w3.org/2000/svg">
<rect width="24" height="24" rx="12" fill="#1E70EB"/>
<path fill-rule="evenodd" clip-rule="evenodd" d="M11.6201 13.9274C11.4975 13.8843 11.3854 13.8197 11.2904 13.7374L8.58118 11.3838C8.48802 11.2994 8.41412 11.1993 8.3637 11.089C8.31328 10.9788 8.28733 10.8606 8.28733 10.7413C8.28733 10.622 8.31328 10.5038 8.3637 10.3936C8.41412 10.2834 8.48802 10.1832 8.58118 10.0988C8.67434 10.0145 8.78494 9.94753 8.90667 9.90187C9.02839 9.8562 9.15885 9.8327 9.2906 9.8327C9.42235 9.8327 9.55281 9.8562 9.67454 9.90187C9.79626 9.94753 9.90686 10.0145 10 10.0988L11.0006 11.1177V6.90492C11.0006 6.66492 11.1059 6.43475 11.2933 6.26504C11.4807 6.09534 11.7348 6 11.9998 6C12.2648 6 12.519 6.09534 12.7063 6.26504C12.8937 6.43475 12.999 6.66492 12.999 6.90492V11.1177L14.0002 10.0988C14.1884 9.92843 14.4436 9.8327 14.7096 9.8327C14.9757 9.8327 15.2309 9.92843 15.4191 10.0988C15.6072 10.2692 15.7129 10.5003 15.7129 10.7413C15.7129 10.9823 15.6072 11.2134 15.4191 11.3838L12.7092 13.7374C12.6142 13.8197 12.5022 13.8843 12.3795 13.9274C12.2599 13.9753 12.1306 14 11.9998 14C11.8691 14 11.7397 13.9753 11.6201 13.9274ZM8.51431 15.5715C8.51431 15.1297 8.15613 14.7715 7.71431 14.7715C7.27248 14.7715 6.91431 15.1297 6.91431 15.5715C6.91431 16.5393 7.69887 17.3239 8.66669 17.3239H15.3334C16.3012 17.3239 17.0857 16.5393 17.0857 15.5715C17.0857 15.1297 16.7276 14.7715 16.2857 14.7715C15.8439 14.7715 15.4857 15.1297 15.4857 15.5715C15.4857 15.6557 15.4175 15.7239 15.3334 15.7239H8.66669C8.58253 15.7239 8.51431 15.6557 8.51431 15.5715Z" fill="white"/>
</svg>
