<svg width="24" height="24" viewBox="0 0 24 24" fill="none" xmlns="http://www.w3.org/2000/svg">
<rect width="24" height="24" rx="12" fill="#FF2835"/>
<path d="M13.2408 12.0525L15.7913 9.50202C15.9335 9.33598 16.0078 9.12238 15.9994 8.90393C15.9909 8.68548 15.9004 8.47825 15.7458 8.32367C15.5912 8.16908 15.384 8.07852 15.1655 8.07009C14.9471 8.06165 14.7335 8.13595 14.5674 8.27815L12.017 10.7852L9.44047 8.20871C9.27442 8.06651 9.06083 7.99221 8.84238 8.00065C8.62393 8.00909 8.4167 8.09964 8.26212 8.25423C8.10753 8.40881 8.01697 8.61604 8.00853 8.83449C8.0001 9.05294 8.0744 9.26654 8.2166 9.43259L10.7844 12.0525L8.3034 14.4814C8.21254 14.5592 8.13874 14.655 8.08664 14.7627C8.03454 14.8704 8.00526 14.9876 8.00065 15.1072C7.99603 15.2267 8.01617 15.3459 8.05981 15.4573C8.10345 15.5687 8.16964 15.6699 8.25423 15.7545C8.33882 15.839 8.43998 15.9052 8.55137 15.9489C8.66275 15.9925 8.78196 16.0126 8.9015 16.008C9.02103 16.0034 9.13833 15.9741 9.24602 15.922C9.3537 15.8699 9.44946 15.7961 9.52727 15.7053L11.9996 13.2329L14.4459 15.6792C14.6119 15.8214 14.8255 15.8957 15.044 15.8873C15.2624 15.8789 15.4697 15.7883 15.6243 15.6337C15.7788 15.4791 15.8694 15.2719 15.8778 15.0535C15.8863 14.835 15.812 14.6214 15.6698 14.4554L13.2408 12.0525Z" fill="white"/>
</svg>
