<svg width="20" height="20" viewBox="0 0 20 20" fill="none" xmlns="http://www.w3.org/2000/svg">
    <circle class="stroke" cx="9.5" cy="10.5" r="5" stroke="#5D5D5D"/>
    <path class="stroke"
          d="M11.95 10.5C11.95 11.9823 11.6489 13.3095 11.1762 14.2549C10.6945 15.2183 10.0845 15.7 9.5 15.7C8.91546 15.7 8.30549 15.2183 7.82378 14.2549C7.35105 13.3095 7.05 11.9823 7.05 10.5C7.05 9.01769 7.35105 7.69055 7.82378 6.74508C8.30549 5.78166 8.91546 5.3 9.5 5.3C10.0845 5.3 10.6945 5.78166 11.1762 6.74508C11.6489 7.69055 11.95 9.01769 11.95 10.5Z"
          stroke="#5D5D5D" stroke-width="0.6"/>
    <line x1="4.91666" y1="12.0335" x2="14.0833" y2="12.0335" stroke="#5D5D5D" stroke-width="0.6"/>
    <line x1="4.91666" y1="9.2835" x2="14.0833" y2="9.2835" stroke="#5D5D5D" stroke-width="0.6"/>
</svg>
