<svg width="200" height="67" viewBox="0 0 200 67" fill="none" xmlns="http://www.w3.org/2000/svg">
<path fill-rule="evenodd" clip-rule="evenodd" d="M28.5714 0L57.1429 10V33.0286C57.1429 44.82 49.9029 53.0629 43.1543 58.18C37.2348 62.6268 28.5714 66.0571 28.5714 66.0571C28.5714 66.0571 19.7072 62.5143 13.9857 58.1771C7.24286 53.0657 0 44.8229 0 33.0314V10L28.5714 0ZM17.5708 23.7104H39.5664C41.3832 23.7104 42.8572 22.2427 42.8572 20.4266C42.8572 18.6106 41.3832 17.1429 39.5721 17.1429H17.5708C15.754 17.1429 14.2858 18.6106 14.2858 20.4266C14.2858 22.2427 15.7597 23.7104 17.5708 23.7104ZM17.5708 45.7143H36.9384C38.3724 45.7143 39.7549 45.2517 40.829 44.4008C42.1145 43.39 42.8515 41.9166 42.8515 40.3575V33.4017C42.8515 31.8426 42.1145 30.3692 40.829 29.3584C39.7549 28.5132 38.3724 28.0506 36.9384 28.0506H17.5708C15.754 28.0506 14.2858 29.5183 14.2858 31.3344C14.2858 33.1504 15.7597 34.6181 17.5708 34.6181H34.0532C34.0532 34.6181 36.407 34.4297 36.407 36.7997C36.407 39.2268 34.0532 39.1468 34.0532 39.1468H17.5708C15.754 39.1468 14.2858 40.6145 14.2858 42.4306C14.2858 44.2466 15.7597 45.7143 17.5708 45.7143Z" fill="#152A48"/>
<path d="M81.9996 42.8841C79.1093 42.8841 76.706 42.1517 74.7899 40.6869C72.8738 39.2221 71.7534 37.2365 71.4286 34.73H75.6181C75.8779 35.9995 76.5436 37.1063 77.6154 38.0503C78.7196 38.9617 80.1972 39.4174 82.0484 39.4174C83.7696 39.4174 85.0362 39.0594 85.8481 38.3432C86.66 37.5946 87.0659 36.7157 87.0659 35.7066C87.0659 34.2418 86.5301 33.2652 85.4584 32.777C84.4191 32.2887 82.9415 31.8493 81.0254 31.4586C79.7263 31.1982 78.4273 30.8239 77.1282 30.3356C75.8292 29.8474 74.7412 29.1638 73.8644 28.2849C72.9875 27.3735 72.5491 26.1853 72.5491 24.7205C72.5491 22.6047 73.3285 20.8795 74.8874 19.5449C76.4787 18.1777 78.6221 17.4942 81.3176 17.4942C83.8833 17.4942 85.978 18.1452 87.6018 19.4472C89.2581 20.7167 90.2161 22.5396 90.4759 24.9158H86.4326C86.2703 23.6789 85.7344 22.7186 84.8251 22.0351C83.9482 21.3189 82.7628 20.9609 81.2689 20.9609C79.8075 20.9609 78.6708 21.2701 77.8589 21.8886C77.0795 22.5071 76.6898 23.3208 76.6898 24.3299C76.6898 25.3065 77.1932 26.0714 78.1999 26.6248C79.2392 27.1782 80.6356 27.6501 82.3894 28.0408C83.8833 28.3663 85.296 28.7732 86.6275 29.2614C87.9915 29.7172 89.0957 30.417 89.9401 31.361C90.8169 32.2724 91.2554 33.607 91.2554 35.3648C91.2878 37.5457 90.4597 39.3523 88.7709 40.7846C87.1146 42.1843 84.8575 42.8841 81.9996 42.8841Z" fill="#152A48"/>
<path d="M103.544 42.8841C101.27 42.8841 99.2242 42.3633 97.4055 41.3217C95.5869 40.28 94.1417 38.8152 93.07 36.9272C92.0307 35.0067 91.5111 32.7607 91.5111 30.1891C91.5111 27.6176 92.047 25.3878 93.1187 23.4999C94.1904 21.5793 95.6356 20.0983 97.4542 19.0566C99.3054 18.015 101.368 17.4942 103.641 17.4942C105.914 17.4942 107.96 18.015 109.779 19.0566C111.598 20.0983 113.027 21.5793 114.066 23.4999C115.138 25.3878 115.673 27.6176 115.673 30.1891C115.673 32.7607 115.138 35.0067 114.066 36.9272C112.994 38.8152 111.533 40.28 109.682 41.3217C107.863 42.3633 105.817 42.8841 103.544 42.8841ZM103.544 39.3686C104.94 39.3686 106.239 39.0268 107.441 38.3432C108.642 37.6597 109.617 36.6343 110.364 35.2671C111.11 33.9 111.484 32.2073 111.484 30.1891C111.484 28.171 111.11 26.4783 110.364 25.1112C109.649 23.744 108.691 22.7186 107.489 22.0351C106.288 21.3515 105.005 21.0097 103.641 21.0097C102.244 21.0097 100.945 21.3515 99.7438 22.0351C98.5422 22.7186 97.5679 23.744 96.821 25.1112C96.074 26.4783 95.7005 28.171 95.7005 30.1891C95.7005 32.2073 96.074 33.9 96.821 35.2671C97.5679 36.6343 98.526 37.6597 99.6951 38.3432C100.897 39.0268 102.18 39.3686 103.544 39.3686Z" fill="#152A48"/>
<path d="M127.806 42.8841C125.532 42.8841 123.486 42.3633 121.668 41.3217C119.849 40.28 118.404 38.8152 117.332 36.9272C116.293 35.0067 115.773 32.7607 115.773 30.1891C115.773 27.6176 116.309 25.3878 117.381 23.4999C118.452 21.5793 119.898 20.0983 121.716 19.0566C123.567 18.015 125.63 17.4942 127.903 17.4942C130.176 17.4942 132.222 18.015 134.041 19.0566C135.86 20.0983 137.289 21.5793 138.328 23.4999C139.4 25.3878 139.935 27.6176 139.935 30.1891C139.935 32.7607 139.4 35.0067 138.328 36.9272C137.256 38.8152 135.795 40.28 133.944 41.3217C132.125 42.3633 130.079 42.8841 127.806 42.8841ZM127.806 39.3686C129.202 39.3686 130.501 39.0268 131.703 38.3432C132.904 37.6597 133.879 36.6343 134.626 35.2671C135.372 33.9 135.746 32.2073 135.746 30.1891C135.746 28.171 135.372 26.4783 134.626 25.1112C133.911 23.744 132.953 22.7186 131.751 22.0351C130.55 21.3515 129.267 21.0097 127.903 21.0097C126.506 21.0097 125.207 21.3515 124.006 22.0351C122.804 22.7186 121.83 23.744 121.083 25.1112C120.336 26.4783 119.963 28.171 119.963 30.1891C119.963 32.2073 120.336 33.9 121.083 35.2671C121.83 36.6343 122.788 37.6597 123.957 38.3432C125.159 39.0268 126.442 39.3686 127.806 39.3686Z" fill="#152A48"/>
<path d="M149.655 42.2982C147.446 42.2982 145.709 41.7611 144.442 40.6869C143.176 39.6127 142.542 37.6759 142.542 34.8765V21.5468H138.353V18.0801H142.542L143.078 12.2697H146.634V18.0801H153.747V21.5468H146.634V34.8765C146.634 36.4064 146.943 37.4481 147.56 38.0014C148.177 38.5223 149.265 38.7827 150.824 38.7827H153.357V42.2982H149.655Z" fill="#152A48"/>
<path d="M154.378 42.2982V7.14288H158.47V22.2304C159.282 20.733 160.435 19.5774 161.929 18.7637C163.423 17.9173 165.047 17.4942 166.801 17.4942C169.594 17.4942 171.834 18.3731 173.523 20.1308C175.212 21.856 176.056 24.5252 176.056 28.1384V42.2982H172.013V28.5779C172.013 23.5324 169.983 21.0097 165.924 21.0097C163.813 21.0097 162.043 21.7747 160.614 23.3046C159.185 24.8019 158.47 26.9503 158.47 29.7497V42.2982H154.378Z" fill="#152A48"/>
<path d="M188.552 42.8841C186.246 42.8841 184.2 42.3633 182.414 41.3217C180.628 40.2475 179.215 38.7664 178.176 36.8784C177.169 34.9905 176.666 32.7607 176.666 30.1891C176.666 27.6502 177.169 25.4367 178.176 23.5487C179.183 21.6282 180.579 20.1471 182.366 19.1055C184.184 18.0313 186.279 17.4942 188.65 17.4942C190.988 17.4942 193.001 18.0313 194.69 19.1055C196.411 20.1471 197.727 21.5305 198.636 23.2557C199.545 24.981 200 26.8364 200 28.822C200 29.1801 199.984 29.5381 199.951 29.8962C199.951 30.2542 199.951 30.6611 199.951 31.1169H180.709C180.807 32.9723 181.229 34.5185 181.976 35.7554C182.755 36.9598 183.713 37.8712 184.85 38.4897C186.019 39.1082 187.253 39.4174 188.552 39.4174C190.241 39.4174 191.654 39.0268 192.79 38.2456C193.927 37.4643 194.755 36.4064 195.275 35.0718H199.318C198.669 37.3179 197.418 39.1896 195.567 40.6869C193.748 42.1517 191.41 42.8841 188.552 42.8841ZM188.552 20.9609C186.604 20.9609 184.866 21.5631 183.34 22.7675C181.846 23.9393 180.985 25.6645 180.758 27.9431H195.957C195.859 25.7622 195.112 24.0532 193.716 22.8163C192.319 21.5794 190.598 20.9609 188.552 20.9609Z" fill="#152A48"/>
<path d="M151.733 60.6333L147.574 49.2611H149.799L153.016 58.5051L156.249 49.2611H158.442L154.283 60.6333H151.733Z" fill="#939393"/>
<path d="M158.432 60.6333L162.591 49.2611H164.93L169.089 60.6333H166.88L165.97 58.0015H161.535L160.609 60.6333H158.432ZM162.103 56.3769H165.401L163.744 51.6493L162.103 56.3769Z" fill="#939393"/>
<path d="M175.261 60.8283C174.427 60.8283 173.674 60.6658 173.003 60.3409C172.331 60.0051 171.795 59.5015 171.394 58.83C171.004 58.1585 170.809 57.3083 170.809 56.2794V49.2611H172.889V56.2956C172.889 57.1837 173.1 57.8444 173.522 58.2776C173.956 58.7109 174.551 58.9275 175.31 58.9275C176.057 58.9275 176.647 58.7109 177.08 58.2776C177.514 57.8444 177.73 57.1837 177.73 56.2956V49.2611H179.81V56.2794C179.81 57.3083 179.604 58.1585 179.192 58.83C178.781 59.5015 178.228 60.0051 177.535 60.3409C176.853 60.6658 176.095 60.8283 175.261 60.8283Z" fill="#939393"/>
<path d="M182.745 60.6333V49.2611H184.824V59.0087H189.861V60.6333H182.745Z" fill="#939393"/>
<path d="M193.265 60.6333V50.9344H189.951V49.2611H198.675V50.9344H195.345V60.6333H193.265Z" fill="#939393"/>
</svg>
