<svg width="30" height="30" viewBox="0 0 30 30" fill="none" xmlns="http://www.w3.org/2000/svg">
<path d="M22.1538 9.46154H19.0769V8.84615C19.0769 8.35652 18.8824 7.88695 18.5362 7.54073C18.19 7.19451 17.7204 7 17.2308 7H13.5385C13.0488 7 12.5793 7.19451 12.233 7.54073C11.8868 7.88695 11.6923 8.35652 11.6923 8.84615V9.46154H8.61538C8.45217 9.46154 8.29565 9.52637 8.18024 9.64178C8.06484 9.75719 8 9.91371 8 10.0769C8 10.2401 8.06484 10.3967 8.18024 10.5121C8.29565 10.6275 8.45217 10.6923 8.61538 10.6923H9.23077V21.7692C9.23077 22.0957 9.36044 22.4087 9.59125 22.6395C9.82207 22.8703 10.1351 23 10.4615 23H20.3077C20.6341 23 20.9472 22.8703 21.178 22.6395C21.4088 22.4087 21.5385 22.0957 21.5385 21.7692V10.6923H22.1538C22.3171 10.6923 22.4736 10.6275 22.589 10.5121C22.7044 10.3967 22.7692 10.2401 22.7692 10.0769C22.7692 9.91371 22.7044 9.75719 22.589 9.64178C22.4736 9.52637 22.3171 9.46154 22.1538 9.46154ZM12.9231 8.84615C12.9231 8.68294 12.9879 8.52642 13.1033 8.41101C13.2187 8.2956 13.3753 8.23077 13.5385 8.23077H17.2308C17.394 8.23077 17.5505 8.2956 17.6659 8.41101C17.7813 8.52642 17.8462 8.68294 17.8462 8.84615V9.46154H12.9231V8.84615ZM20.3077 21.7692H10.4615V10.6923H20.3077V21.7692ZM14.1538 13.7692V18.6923C14.1538 18.8555 14.089 19.012 13.9736 19.1275C13.8582 19.2429 13.7017 19.3077 13.5385 19.3077C13.3753 19.3077 13.2187 19.2429 13.1033 19.1275C12.9879 19.012 12.9231 18.8555 12.9231 18.6923V13.7692C12.9231 13.606 12.9879 13.4495 13.1033 13.3341C13.2187 13.2187 13.3753 13.1538 13.5385 13.1538C13.7017 13.1538 13.8582 13.2187 13.9736 13.3341C14.089 13.4495 14.1538 13.606 14.1538 13.7692ZM17.8462 13.7692V18.6923C17.8462 18.8555 17.7813 19.012 17.6659 19.1275C17.5505 19.2429 17.394 19.3077 17.2308 19.3077C17.0676 19.3077 16.911 19.2429 16.7956 19.1275C16.6802 19.012 16.6154 18.8555 16.6154 18.6923V13.7692C16.6154 13.606 16.6802 13.4495 16.7956 13.3341C16.911 13.2187 17.0676 13.1538 17.2308 13.1538C17.394 13.1538 17.5505 13.2187 17.6659 13.3341C17.7813 13.4495 17.8462 13.606 17.8462 13.7692Z" fill="#1E70EB"/>
</svg>
