<svg width="41" height="40" viewBox="0 0 41 40" fill="none" xmlns="http://www.w3.org/2000/svg">
<rect x="0.5" width="40" height="40" rx="20" fill="#BDD7FF"/>
<path d="M13.5 20.4127C13.5 16.5001 16.6718 13.3283 20.5843 13.3283C22.6103 13.3283 24.4377 14.1788 25.7289 15.5422L24.5693 12" stroke="#0E59CB" stroke-width="1.4" stroke-linecap="round" stroke-linejoin="round"/>
<path d="M27.5 20.4125C27.5 24.3251 24.3282 27.4969 20.4157 27.4969C18.3897 27.4969 16.5623 26.6464 15.2711 25.283L16.4307 28.8252" stroke="#0E59CB" stroke-width="1.4" stroke-linecap="round" stroke-linejoin="round"/>
<path d="M18.4437 22.9221L17.0422 18.1992H18.0598L18.9813 21.7604L20.018 18.1992H21.1508L22.1875 21.7604L23.109 18.1992H24.1266L22.7251 22.9221H21.6787L20.5844 19.2085L19.4901 22.9221H18.4437Z" fill="#0E59CB" stroke="#0E59CB" stroke-width="0.5"/>
</svg>
