<?xml version="1.0" encoding="UTF-8"?>
<svg xmlns="http://www.w3.org/2000/svg" xmlns:xlink="http://www.w3.org/1999/xlink" width="46px" height="46px"
     viewBox="0 0 46 46" version="1.1">
    <g id="surface1">
        <path style=" stroke:none;fill-rule:nonzero;fill:rgb(100%,40%,19.607843%);fill-opacity:1;"
              d="M 33.214844 2.386719 C 33.050781 2.304688 32.851562 2.339844 32.722656 2.46875 L 27.683594 7.503906 L 13.59375 21.597656 C 12.601562 22.589844 12.527344 24.21875 13.5 25.226562 C 14.492188 26.257812 16.128906 26.269531 17.136719 25.261719 L 25.261719 17.136719 C 28.246094 14.152344 33.085938 14.152344 36.070312 17.136719 C 39.054688 20.121094 39.054688 24.957031 36.070312 27.945312 L 21.917969 42.09375 L 18.75 45.261719 C 18.628906 45.386719 18.691406 45.597656 18.863281 45.628906 C 20.203125 45.871094 21.585938 46.003906 23 46.003906 C 35.703125 46.003906 46 35.707031 46 23.003906 C 46 13.96875 40.792969 6.15625 33.214844 2.390625 Z M 33.214844 2.386719 "/>
        <path style=" stroke:none;fill-rule:nonzero;fill:rgb(100%,66.666667%,0.392157%);fill-opacity:1;"
              d="M 32.464844 20.738281 C 31.472656 19.742188 29.859375 19.742188 28.863281 20.738281 L 20.738281 28.863281 C 17.753906 31.847656 12.914062 31.847656 9.929688 28.863281 C 6.945312 25.878906 6.945312 21.042969 9.929688 18.054688 L 24.082031 3.90625 L 27.25 0.738281 C 27.371094 0.613281 27.308594 0.402344 27.136719 0.371094 C 25.796875 0.128906 24.410156 0 23 0 C 10.296875 0 0 10.296875 0 23 C 0 32.03125 5.207031 39.847656 12.785156 43.609375 C 12.949219 43.691406 13.148438 43.65625 13.277344 43.527344 L 18.316406 38.492188 L 32.464844 24.339844 C 33.460938 23.34375 33.460938 21.734375 32.464844 20.738281 Z M 32.464844 20.738281 "/>
    </g>
</svg>
