<svg width="46" height="46" viewBox="0 0 46 46" xmlns="http://www.w3.org/2000/svg">
    <path d="M33.205 2.383C40.785 6.145 46 13.96 46 22.997 46 35.703 35.702 46 23 46a23.1 23.1 0 0 1-4.585-.459l18.292-18.293c2.877-2.877 2.877-7.561 0-10.44-2.88-2.878-7.563-2.878-10.44 0l-.035.034-.261.262-.215.215-.126.126-.608.607-.545.546-.599.599-.42.42-3.017 3.017-.304.305-.263.262-.477.477-.035.035-2.642 2.643a2.646 2.646 0 1 1-3.743-3.741l20.226-20.23zM23 0c1.816 0 3.582.217 5.278.615L9.628 19.266c-2.877 2.88-2.877 7.561 0 10.44a7.362 7.362 0 0 0 5.22 2.16c1.89 0 3.781-.72 5.22-2.16l.011-.01.244-.245.475-.475.591-.59.59-.591.26-.26.216-.216 7.16-7.16a2.648 2.648 0 0 1 3.744 3.743l-19.987 19.99C5.479 40.245 0 32.266 0 23.001 0 10.298 10.298 0 23 0z" fill="#3739B9" fill-rule="nonzero"/>
</svg>
